<svg width="11" height="14" viewBox="0 0 11 14" fill="none" xmlns="http://www.w3.org/2000/svg">
<g clip-path="url(#clip0_70_119)">
<path d="M5.50001 0.0218506C4.04416 0.0218506 2.64794 0.610011 1.6185 1.65694C0.58906 2.70388 0.0107269 4.12382 0.0107269 5.60441C0.0107269 9.37263 4.84815 13.6293 5.054 13.8108C5.17829 13.9189 5.33646 13.9783 5.50001 13.9783C5.66355 13.9783 5.82172 13.9189 5.94601 13.8108C6.18617 13.6293 10.9893 9.37263 10.9893 5.60441C10.9893 4.12382 10.411 2.70388 9.38151 1.65694C8.35207 0.610011 6.95585 0.0218506 5.50001 0.0218506ZM5.50001 12.3384C4.03849 10.9427 1.38305 7.93512 1.38305 5.60441C1.38305 4.49397 1.8168 3.42901 2.58888 2.64381C3.36096 1.85861 4.40812 1.41749 5.50001 1.41749C6.59189 1.41749 7.63906 1.85861 8.41114 2.64381C9.18322 3.42901 9.61696 4.49397 9.61696 5.60441C9.61696 7.93512 6.96153 10.9497 5.50001 12.3384ZM5.50001 2.81313C4.95717 2.81313 4.42652 2.97683 3.97517 3.28354C3.52381 3.59025 3.17202 4.02619 2.96429 4.53623C2.75655 5.04627 2.7022 5.6075 2.8081 6.14896C2.91401 6.69041 3.17541 7.18777 3.55925 7.57814C3.9431 7.9685 4.43215 8.23435 4.96455 8.34205C5.49696 8.44975 6.04882 8.39448 6.55033 8.18321C7.05185 7.97195 7.4805 7.61418 7.78209 7.15516C8.08367 6.69613 8.24465 6.15647 8.24465 5.60441C8.24465 4.86411 7.95548 4.15414 7.44076 3.63067C6.92604 3.10721 6.22793 2.81313 5.50001 2.81313ZM5.50001 7.00004C5.22859 7.00004 4.96326 6.91819 4.73759 6.76484C4.51191 6.61148 4.33602 6.39351 4.23215 6.13849C4.12828 5.88347 4.1011 5.60286 4.15405 5.33213C4.20701 5.0614 4.33771 4.81272 4.52963 4.61754C4.72155 4.42236 4.96608 4.28943 5.23228 4.23558C5.49848 4.18173 5.77441 4.20937 6.02517 4.315C6.27593 4.42064 6.49026 4.59952 6.64105 4.82903C6.79184 5.05854 6.87233 5.32837 6.87233 5.60441C6.87233 5.97455 6.72774 6.32954 6.47038 6.59127C6.21302 6.853 5.86397 7.00004 5.50001 7.00004Z" fill="#1A639E"/>
</g>
<defs>
<clipPath id="clip0_70_119">
<rect width="11" height="14" fill="white"/>
</clipPath>
</defs>
</svg>
