<svg width="14" height="14" viewBox="0 0 14 14" fill="none" xmlns="http://www.w3.org/2000/svg">
<g clip-path="url(#clip0_70_124)">
<path d="M11.8238 5.64294C11.5409 5.64294 11.3839 5.74323 11.2692 5.81619C11.1748 5.87646 11.1178 5.91282 10.978 5.91282C10.8381 5.91282 10.7809 5.87646 10.687 5.81619C10.5723 5.74323 10.4153 5.64294 10.1323 5.64294C9.8494 5.64294 9.69264 5.74323 9.5782 5.81619C9.48405 5.87646 9.42732 5.91257 9.28768 5.91257C9.14805 5.91257 9.09132 5.87646 8.99717 5.81619C8.88272 5.74299 8.72597 5.64294 8.44328 5.64294C8.16059 5.64294 8.00384 5.74323 7.8894 5.81643C7.79525 5.87646 7.73876 5.91282 7.59913 5.91282C7.46023 5.91282 7.40349 5.8767 7.30959 5.81643C7.19514 5.74323 7.03839 5.64294 6.7557 5.64294C6.47301 5.64294 6.31626 5.74323 6.20182 5.81643C6.10767 5.87646 6.05118 5.91282 5.91154 5.91282C5.77191 5.91282 5.71518 5.8767 5.62103 5.81643C5.50658 5.74323 5.34983 5.64319 5.06714 5.64319C5.00229 5.64319 4.94009 5.6689 4.89423 5.71466C4.84837 5.76042 4.8226 5.82248 4.8226 5.8872C4.8226 5.95191 4.84837 6.01398 4.89423 6.05974C4.94009 6.1055 5.00229 6.13121 5.06714 6.13121C5.20653 6.13121 5.26327 6.16732 5.35741 6.22759C5.47186 6.30079 5.62861 6.40108 5.91154 6.40108C6.19399 6.40108 6.35099 6.30079 6.46543 6.22759C6.55958 6.16756 6.61607 6.13121 6.7557 6.13121C6.89485 6.13121 6.95158 6.16732 7.04548 6.22759C7.15993 6.30079 7.31668 6.40108 7.59913 6.40108C7.88157 6.40108 8.03857 6.30079 8.15301 6.22759C8.24716 6.16756 8.30365 6.13121 8.44328 6.13121C8.58292 6.13121 8.6394 6.16732 8.73355 6.22759C8.848 6.30079 9.00475 6.40108 9.28768 6.40108C9.57062 6.40108 9.72737 6.30079 9.84181 6.22783C9.93596 6.16756 9.9927 6.13145 10.1323 6.13145C10.272 6.13145 10.3292 6.16781 10.4231 6.22783C10.5378 6.30104 10.6948 6.40108 10.978 6.40108C11.2611 6.40108 11.4179 6.30079 11.5326 6.22783C11.627 6.16756 11.6839 6.13121 11.8238 6.13121C11.8887 6.13121 11.9509 6.10548 11.9968 6.0597C12.0427 6.01392 12.0685 5.95182 12.0685 5.88707C12.0685 5.82233 12.0427 5.76023 11.9968 5.71445C11.9509 5.66867 11.8887 5.64294 11.8238 5.64294ZM11.8238 7.52083C11.5409 7.52083 11.3839 7.62112 11.2692 7.69408C11.1748 7.75435 11.1178 7.79071 10.978 7.79071C10.8381 7.79071 10.7809 7.75435 10.687 7.69408C10.5723 7.62112 10.4153 7.52083 10.1323 7.52083C9.8494 7.52083 9.69264 7.62112 9.5782 7.69408C9.48405 7.75435 9.42732 7.79046 9.28768 7.79046C9.14805 7.79046 9.09132 7.75435 8.99717 7.69408C8.88272 7.62088 8.72597 7.52083 8.44328 7.52083C8.16059 7.52083 8.00384 7.62112 7.8894 7.69432C7.79525 7.75435 7.73876 7.79071 7.59913 7.79071C7.46023 7.79071 7.40349 7.75459 7.30959 7.69432C7.19514 7.62112 7.03839 7.52083 6.7557 7.52083C6.47301 7.52083 6.31626 7.62112 6.20182 7.69432C6.10767 7.75435 6.05118 7.79071 5.91154 7.79071C5.77191 7.79071 5.71518 7.75459 5.62103 7.69432C5.50658 7.62112 5.34983 7.52108 5.06714 7.52108C5.00229 7.52108 4.94009 7.54679 4.89423 7.59255C4.84837 7.63831 4.8226 7.70037 4.8226 7.76509C4.8226 7.8298 4.84837 7.89186 4.89423 7.93763C4.94009 7.98339 5.00229 8.00909 5.06714 8.00909C5.20653 8.00909 5.26327 8.04521 5.35741 8.10548C5.47186 8.17868 5.62861 8.27897 5.91154 8.27897C6.19399 8.27897 6.35099 8.17868 6.46543 8.10548C6.55958 8.04545 6.61607 8.00909 6.7557 8.00909C6.89485 8.00909 6.95158 8.04521 7.04548 8.10548C7.15993 8.17868 7.31668 8.27897 7.59913 8.27897C7.88157 8.27897 8.03857 8.17868 8.15301 8.10548C8.24716 8.04545 8.30365 8.00909 8.44328 8.00909C8.58292 8.00909 8.6394 8.04521 8.73355 8.10548C8.848 8.17868 9.00475 8.27897 9.28768 8.27897C9.57062 8.27897 9.72737 8.17868 9.84181 8.10572C9.93596 8.04545 9.9927 8.00934 10.1323 8.00934C10.272 8.00934 10.3292 8.0457 10.4231 8.10572C10.5378 8.17892 10.6948 8.27897 10.978 8.27897C11.2611 8.27897 11.4179 8.17868 11.5326 8.10572C11.627 8.04545 11.6839 8.00909 11.8238 8.00909C11.8887 8.00909 11.9509 7.98337 11.9968 7.93759C12.0427 7.89181 12.0685 7.82971 12.0685 7.76496C12.0685 7.70022 12.0427 7.63812 11.9968 7.59234C11.9509 7.54655 11.8887 7.52083 11.8238 7.52083ZM11.8238 9.3509C11.5409 9.3509 11.3839 9.45118 11.2692 9.52414C11.1748 9.58441 11.1178 9.62077 10.978 9.62077C10.8381 9.62077 10.7809 9.58441 10.687 9.52414C10.5723 9.45118 10.4153 9.3509 10.1323 9.3509C9.8494 9.3509 9.69264 9.45118 9.5782 9.52414C9.48405 9.58441 9.42732 9.62052 9.28768 9.62052C9.14805 9.62052 9.09132 9.58441 8.99717 9.52414C8.88272 9.45094 8.72597 9.3509 8.44328 9.3509C8.16059 9.3509 8.00384 9.45118 7.8894 9.52439C7.79525 9.58441 7.73876 9.62077 7.59913 9.62077C7.46023 9.62077 7.40349 9.58466 7.30959 9.52439C7.19514 9.45118 7.03839 9.3509 6.7557 9.3509C6.47301 9.3509 6.31626 9.45118 6.20182 9.52439C6.10767 9.58441 6.05118 9.62077 5.91154 9.62077C5.77191 9.62077 5.71518 9.58466 5.62103 9.52439C5.50658 9.45118 5.34983 9.35114 5.06714 9.35114C5.00229 9.35114 4.94009 9.37685 4.89423 9.42261C4.84837 9.46837 4.8226 9.53043 4.8226 9.59515C4.8226 9.65986 4.84837 9.72193 4.89423 9.76769C4.94009 9.81345 5.00229 9.83916 5.06714 9.83916C5.20653 9.83916 5.26327 9.87527 5.35741 9.93554C5.47186 10.0087 5.62861 10.109 5.91154 10.109C6.19399 10.109 6.35099 10.0087 6.46543 9.93554C6.55958 9.87551 6.61607 9.83916 6.7557 9.83916C6.89485 9.83916 6.95158 9.87527 7.04548 9.93554C7.15993 10.0087 7.31668 10.109 7.59913 10.109C7.88157 10.109 8.03857 10.0087 8.15301 9.93554C8.24716 9.87551 8.30365 9.83916 8.44328 9.83916C8.58292 9.83916 8.6394 9.87527 8.73355 9.93554C8.848 10.0087 9.00475 10.109 9.28768 10.109C9.57062 10.109 9.72737 10.0087 9.84181 9.93578C9.93596 9.87551 9.9927 9.8394 10.1323 9.8394C10.272 9.8394 10.3292 9.87576 10.4231 9.93578C10.5378 10.009 10.6948 10.109 10.978 10.109C11.2611 10.109 11.4179 10.0087 11.5326 9.93578C11.627 9.87551 11.6839 9.83916 11.8238 9.83916C11.8887 9.83916 11.9509 9.81344 11.9968 9.76765C12.0427 9.72187 12.0685 9.65977 12.0685 9.59503C12.0685 9.53028 12.0427 9.46818 11.9968 9.4224C11.9509 9.37662 11.8887 9.3509 11.8238 9.3509Z" fill="#1A639E"/>
<path d="M13.7549 1.93011H9.51227V0.244551C9.51227 0.190381 9.49428 0.137742 9.46112 0.0948981C9.42796 0.0520539 9.38151 0.021429 9.32905 0.00783047C9.27659 -0.00576809 9.22111 -0.00157059 9.17129 0.0197642C9.12148 0.041099 9.08017 0.0783632 9.05383 0.125708L8.94497 0.321579L8.83514 0.125219C8.81388 0.0872643 8.78289 0.0556577 8.74535 0.0336521C8.70781 0.0116465 8.66509 3.69273e-05 8.62157 1.82386e-05H8.62084C8.5772 0.00015827 8.5344 0.011952 8.49685 0.0341791C8.4593 0.0564062 8.42838 0.0882591 8.40728 0.126442L8.30135 0.3184L8.19445 0.125953C8.1732 0.0879153 8.14219 0.056235 8.1046 0.0341821C8.06702 0.0121291 8.02423 0.000502546 7.98064 0.000502546C7.93706 0.000502546 7.89427 0.0121291 7.85669 0.0341821C7.8191 0.056235 7.78809 0.0879153 7.76684 0.125953L7.65896 0.320356L7.55083 0.125953C7.5245 0.0786078 7.48318 0.0413435 7.43337 0.0200088C7.38356 -0.00132602 7.32807 -0.00552358 7.27561 0.00807499C7.22316 0.0216735 7.1767 0.0522984 7.14354 0.0951426C7.11038 0.137987 7.09239 0.190625 7.0924 0.244795V1.93036H3.13527C3.07039 1.93036 3.00816 1.95612 2.96229 2.00198C2.91641 2.04784 2.89064 2.11004 2.89064 2.17489L2.89088 8.96727C2.84 10.0161 2.75658 10.8925 2.64332 11.5808H0.244479C0.204635 11.5809 0.165399 11.5906 0.130184 11.6092C0.0949686 11.6279 0.0648395 11.6548 0.0424161 11.6878C0.0199926 11.7207 0.00595359 11.7586 0.00151953 11.7982C-0.00291453 11.8377 0.00239065 11.8778 0.0169738 11.9149C0.0250465 11.9357 0.863147 14 1.82772 14H12.4493C12.451 14 12.4522 13.9993 12.4537 13.9993C12.6386 13.9968 12.8077 13.9264 12.9535 13.7904C13.1585 13.6056 13.3268 13.3028 13.4677 12.8668C13.7365 12.0516 13.9154 10.7308 14 8.93035V2.17465C13.9995 2.03942 13.8902 1.93011 13.7549 1.93011ZM7.58141 1.05567C7.68807 1.09161 7.81674 1.04344 7.87252 0.942447L7.9804 0.748533L8.08804 0.942447C8.10918 0.980609 8.14016 1.01241 8.17776 1.03456C8.21536 1.05671 8.2582 1.06838 8.30184 1.06838C8.39089 1.06838 8.47308 1.01972 8.51614 0.941958L8.62304 0.748288L8.7319 0.943181C8.7752 1.02045 8.85691 1.06838 8.94546 1.06838H8.94571C8.97237 1.06838 8.9983 1.06398 9.02277 1.05591V3.87293C8.96863 3.85488 8.90987 3.85635 8.8567 3.87708C8.80353 3.8978 8.75929 3.93647 8.73166 3.98639L8.62378 4.18055L8.51589 3.98639C8.49468 3.94831 8.46368 3.91658 8.42609 3.89448C8.3885 3.87239 8.34569 3.86072 8.30209 3.8607H8.3016C8.25789 3.86079 8.215 3.87259 8.1774 3.89487C8.1398 3.91715 8.10886 3.94909 8.08779 3.98737L7.98113 4.18079L7.87227 3.98614C7.85102 3.94819 7.82002 3.91658 7.78249 3.89458C7.74495 3.87257 7.70223 3.86096 7.65871 3.86094C7.63205 3.86094 7.60587 3.86535 7.58141 3.87341V1.05567ZM1.82748 13.5104C1.45222 13.5104 0.918678 12.6609 0.624389 12.0694H10.7017C10.7897 12.2606 10.9531 12.5922 11.1576 12.9179C11.2071 12.9981 11.256 13.072 11.3052 13.1432L11.3423 13.197C11.3905 13.2649 11.4385 13.33 11.4859 13.3892L11.5014 13.4073C11.5302 13.443 11.5591 13.4779 11.588 13.5102L1.82748 13.5104ZM13.0019 12.7147C12.862 13.1488 12.7199 13.3417 12.6222 13.4295C12.5447 13.5021 12.4835 13.5104 12.4442 13.5104C12.2272 13.5104 11.9018 13.193 11.5728 12.6597C11.2822 12.1966 11.0909 11.7413 11.0899 11.7393C11.0884 11.7356 11.0857 11.7329 11.0845 11.7293C11.083 11.7258 11.0806 11.7232 11.0794 11.7197C11.0643 11.6889 11.043 11.6615 11.0167 11.6393C11.0043 11.6289 10.9907 11.6198 10.9764 11.6121C10.9644 11.6053 10.9529 11.5987 10.9397 11.594C10.9289 11.5904 10.9174 11.5894 10.9062 11.5872C10.8903 11.584 10.8756 11.5777 10.8587 11.5777C10.8541 11.5777 10.8504 11.5801 10.8457 11.5803H3.13967C3.25024 10.8834 3.32901 10.031 3.3799 8.97852V8.9773L3.38039 8.97485C3.38185 8.95945 3.38283 8.9438 3.38283 8.92937C3.38283 8.92424 3.38014 8.92008 3.3799 8.91519V2.41918H7.09215V4.6838C7.09215 4.73797 7.11014 4.7906 7.1433 4.83345C7.17646 4.87629 7.22291 4.90692 7.27537 4.92052C7.32783 4.93412 7.38331 4.92992 7.43313 4.90858C7.48294 4.88725 7.52425 4.84998 7.55059 4.80264L7.65945 4.60677L7.76929 4.80313C7.81258 4.8804 7.89429 4.92833 7.98285 4.92833H7.98358C8.02725 4.92819 8.07008 4.91637 8.10764 4.8941C8.14519 4.87182 8.17609 4.83991 8.19714 4.80166L8.30307 4.6097L8.41021 4.80264C8.43148 4.84066 8.46252 4.87233 8.50011 4.89436C8.53771 4.91639 8.58051 4.92799 8.62409 4.92797C8.66767 4.92794 8.71046 4.91629 8.74803 4.89422C8.7856 4.87214 8.8166 4.84044 8.83783 4.80239L8.94571 4.60824L9.05359 4.80239C9.06607 4.82465 9.08197 4.84348 9.09958 4.86035C9.10594 4.86646 9.11328 4.87086 9.12013 4.87624C9.14009 4.89173 9.16238 4.90395 9.18618 4.91243C9.20012 4.91732 9.21382 4.9205 9.2285 4.92295C9.23804 4.92442 9.24709 4.92637 9.25688 4.92662C9.26055 4.92686 9.26348 4.92808 9.26715 4.92808C9.33203 4.92808 9.39425 4.90232 9.44013 4.85646C9.48601 4.8106 9.51178 4.74841 9.51178 4.68355V2.41893H13.5098L13.51 8.91812C13.4283 10.6631 13.2575 11.9398 13.0019 12.7147Z" fill="#1A639E"/>
</g>
<defs>
<clipPath id="clip0_70_124">
<rect width="14" height="14" fill="white"/>
</clipPath>
</defs>
</svg>
