<svg width="14" height="14" viewBox="0 0 14 14" fill="none" xmlns="http://www.w3.org/2000/svg">
<path d="M12.2046 13.6088L12.2357 13.5777L13.699 11.896C13.9169 11.6624 14.0259 11.351 13.9948 11.0084C13.9636 10.7125 13.8391 10.4167 13.6212 10.1987L13.5745 10.152L11.4885 8.50137C11.0215 8.06537 10.3054 8.08094 9.85394 8.53251C9.8228 8.56366 9.79167 8.5948 9.7761 8.62594L9.21569 9.46681C8.91991 9.40452 8.07929 8.96852 6.53816 7.42693C5.01259 5.90092 4.57671 5.04449 4.51444 4.7642L5.35506 4.20362C5.3862 4.18805 5.41733 4.15691 5.44846 4.12577C5.89991 3.67419 5.89991 2.94233 5.4796 2.49076L3.82949 0.41974L3.78279 0.373025C3.31578 -0.0941212 2.53743 -0.125264 2.08598 0.295167L0.420311 1.75889L0.389176 1.79004C0.108969 2.07032 2.05934e-07 2.50633 2.05934e-07 2.98904C2.05934e-07 3.84548 0.342475 4.82649 0.544847 5.34035C0.934022 6.33693 1.88361 8.28337 3.81392 10.2142C5.24609 11.6468 6.97403 12.7991 8.68641 13.4843C9.46476 13.7646 11.3951 14.4186 12.2046 13.6088ZM4.67011 9.31109C1.79021 6.43036 0.99629 3.19147 1.26093 2.64647L2.89547 1.22946L4.49887 3.25376L3.67382 3.79876C3.65825 3.81434 3.64269 3.81434 3.62712 3.82991C3.39361 4.01677 3.26908 4.28148 3.25351 4.59291C3.23794 4.88877 3.19124 5.80749 5.6664 8.28337C6.27352 8.89066 8.14156 10.7592 9.35579 10.697C9.66713 10.6814 9.93177 10.5412 10.1186 10.3232C10.1341 10.3077 10.1497 10.2921 10.1497 10.2765L10.7101 9.48238L12.7494 11.0862L11.3328 12.7057C10.788 12.986 7.55001 12.1918 4.67011 9.31109Z" fill="#1A639E"/>
</svg>
