<svg width="14" height="14" viewBox="0 0 14 14" fill="none" xmlns="http://www.w3.org/2000/svg">
<path fill-rule="evenodd" clip-rule="evenodd" d="M6.31707 0C5.75802 6.37064e-05 5.21958 0.211096 4.80937 0.590921C4.39916 0.970746 4.14739 1.49138 4.10439 2.04878H3.90224C3.28488 2.04878 2.78702 2.04878 2.38478 2.08498C1.97093 2.12254 1.60898 2.20244 1.28049 2.39229C0.891121 2.61691 0.567735 2.94006 0.342829 3.32927C0.153659 3.65776 0.0737561 4.01971 0.0361951 4.43356C-1.78087e-08 4.8358 0 5.33366 0 5.95102V6.0002C0 6.61756 -1.78087e-08 7.11541 0.0361951 7.51766C0.0737561 7.93151 0.153659 8.29346 0.343512 8.62195C0.516293 8.92244 0.748488 9.18332 1.02439 9.39024V9.42781C1.02439 10.3614 1.02439 11.1146 1.10429 11.7067C1.18624 12.3214 1.3638 12.839 1.77424 13.2501C2.18537 13.6613 2.70302 13.8375 3.31766 13.9208C3.90976 14 4.66302 14 5.59659 14H8.40341C9.33698 14 10.0902 14 10.6823 13.9208C11.297 13.8375 11.8146 13.6613 12.2258 13.2501C12.6369 12.839 12.8131 12.3214 12.8964 11.7067C12.9756 11.1146 12.9756 10.3614 12.9756 9.42781V9.39024C13.2523 9.1828 13.4842 8.92144 13.6572 8.62195C13.8463 8.29346 13.9262 7.93151 13.9638 7.51766C14 7.11541 14 6.61756 14 6.0002V5.95102C14 5.33366 14 4.8358 13.9638 4.43356C13.9262 4.01971 13.8463 3.65776 13.6565 3.32927C13.4319 2.9399 13.1087 2.61652 12.7195 2.39161C12.391 2.20244 12.0291 2.12254 11.6152 2.08498C11.213 2.04878 10.7151 2.04878 10.0978 2.04878H9.89561C9.85261 1.49138 9.60084 0.970746 9.19063 0.590921C8.78042 0.211096 8.24198 6.37064e-05 7.68293 0H6.31707ZM6.31707 1.02439C6.02969 1.0244 5.75194 1.12796 5.5347 1.3161C5.31747 1.50423 5.1753 1.76435 5.13424 2.04878H8.86576C8.8247 1.76435 8.68253 1.50423 8.4653 1.3161C8.24806 1.12796 7.97031 1.0244 7.68293 1.02439H6.31707ZM2.11912 11.5701C2.06039 11.1338 2.05083 10.5772 2.04878 9.82322C2.15737 9.84166 2.26937 9.85532 2.38478 9.86624C2.78702 9.90244 3.28488 9.90244 3.90224 9.90244H5.19298C5.30459 10.2958 5.54146 10.6419 5.86764 10.8884C6.19382 11.1349 6.5915 11.2683 7.00034 11.2683C7.40918 11.2683 7.80687 11.1349 8.13305 10.8884C8.45922 10.6419 8.69609 10.2958 8.80771 9.90244H10.0978C10.7151 9.90244 11.213 9.90244 11.6152 9.86624C11.7313 9.85532 11.8426 9.84166 11.9512 9.82322C11.9492 10.5772 11.9396 11.1338 11.8809 11.5701C11.8133 12.0714 11.6897 12.3364 11.5012 12.5256C11.312 12.7147 11.047 12.8377 10.5451 12.9053C10.0295 12.9742 9.34585 12.9756 8.36585 12.9756H5.63415C4.65415 12.9756 3.96985 12.9742 3.45424 12.9053C2.95298 12.8377 2.688 12.714 2.49883 12.5256C2.30966 12.3364 2.18673 12.0721 2.11912 11.5701ZM8.80771 8.87805H10.0732C10.7206 8.87805 11.1727 8.87805 11.5223 8.84595C11.8659 8.81454 12.0605 8.75717 12.2073 8.67249C12.4409 8.53727 12.6348 8.34332 12.77 8.10976C12.8547 7.96293 12.9121 7.76829 12.9435 7.42478C12.9749 7.07512 12.9756 6.62302 12.9756 5.97561C12.9756 5.3282 12.9756 4.8761 12.9435 4.52644C12.9121 4.18293 12.8547 3.98829 12.77 3.84146C12.6351 3.60772 12.4411 3.41364 12.2073 3.27873C12.0605 3.19405 11.8659 3.13668 11.5223 3.10527C11.1727 3.07385 10.7206 3.07317 10.0732 3.07317H3.92683C3.27941 3.07317 2.82732 3.07317 2.47766 3.10527C2.13415 3.13668 1.93951 3.19405 1.79268 3.27873C1.55894 3.41364 1.36486 3.60772 1.22995 3.84146C1.14527 3.98829 1.0879 4.18293 1.05649 4.52644C1.02507 4.8761 1.02439 5.3282 1.02439 5.97561C1.02439 6.62302 1.02439 7.07512 1.05649 7.42478C1.0879 7.76761 1.14527 7.96293 1.22995 8.10976C1.36517 8.34332 1.55912 8.53727 1.79268 8.67249C1.93951 8.75717 2.13415 8.81454 2.47766 8.84595C2.82732 8.87737 3.27941 8.87805 3.92683 8.87805H5.19298C5.30459 8.48474 5.54146 8.13857 5.86764 7.89207C6.19382 7.64558 6.5915 7.51221 7.00034 7.51221C7.40918 7.51221 7.80687 7.64558 8.13305 7.89207C8.45922 8.13857 8.69609 8.48474 8.80771 8.87805ZM6.14634 9.39024C6.14634 9.16384 6.23628 8.94671 6.39637 8.78662C6.55646 8.62652 6.7736 8.53659 7 8.53659C7.2264 8.53659 7.44354 8.62652 7.60363 8.78662C7.76372 8.94671 7.85366 9.16384 7.85366 9.39024C7.85366 9.61665 7.76372 9.83378 7.60363 9.99387C7.44354 10.154 7.2264 10.2439 7 10.2439C6.7736 10.2439 6.55646 10.154 6.39637 9.99387C6.23628 9.83378 6.14634 9.61665 6.14634 9.39024Z" fill="#1A639E"/>
</svg>
