<svg width="23" height="24" viewBox="0 0 23 24" fill="none" xmlns="http://www.w3.org/2000/svg">
<g clip-path="url(#clip0_79_67)">
<path d="M22.3004 2.95468H15.3324V0.736011C15.3324 0.360545 15.0188 0.0533447 14.6356 0.0533447H8.36434C7.9811 0.0533447 7.66754 0.360545 7.66754 0.736011V2.95468H0.69949C0.316248 2.95468 0.00268555 3.26188 0.00268555 3.63734C0.00268555 4.01281 0.316248 4.32001 0.69949 4.32001H2.99895V23.264C2.99895 23.6395 3.31251 23.9467 3.69575 23.9467H19.3042C19.6874 23.9467 20.001 23.6395 20.001 23.264V4.32001H22.3004C22.6837 4.32001 22.9972 4.01281 22.9972 3.63734C22.9972 3.26188 22.6837 2.95468 22.3004 2.95468ZM9.06115 1.41868H13.9388V2.78401H9.06115V1.41868ZM18.6074 22.5813H4.39256V4.32001H18.6074V22.5813ZM15.3324 8.00641V18.9291C15.3324 19.3045 15.0188 19.6117 14.6356 19.6117C14.2523 19.6117 13.9388 19.3045 13.9388 18.9291V8.00641C13.9388 7.63094 14.2523 7.32374 14.6356 7.32374C15.0188 7.32374 15.3324 7.59681 15.3324 8.00641ZM9.06115 8.00641V18.9291C9.06115 19.3045 8.74759 19.6117 8.36434 19.6117C7.9811 19.6117 7.66754 19.3045 7.66754 18.9291V8.00641C7.66754 7.63094 7.9811 7.32374 8.36434 7.32374C8.74759 7.32374 9.06115 7.59681 9.06115 8.00641Z" fill="black"/>
</g>
<defs>
<clipPath id="clip0_79_67">
<rect width="23" height="24" fill="white"/>
</clipPath>
</defs>
</svg>
